<svg id="Calque_1" data-name="Calque 1" xmlns="http://www.w3.org/2000/svg" viewBox="0 0 960 960"><title>pictos site TBB</title><path style="fill:#f04f2a" d="M765.25,530.75a5.56,5.56,0,0,1-5.6,5.5H343.79a256.67,256.67,0,0,1-33.94-49.47l-2.93-5.34A9.7,9.7,0,0,1,309.54,469l35.94-28a30.29,30.29,0,0,0,6.58-40.56L327.9,364.22V216.15a5.52,5.52,0,0,1,5.59-5.59H759.65a5.53,5.53,0,0,1,5.6,5.59ZM448.81,653.33l5.16,2.84a30,30,0,0,0,38.4-7.92l28-35.93a9.89,9.89,0,0,1,13.22-2.15l96,64a9.82,9.82,0,0,1,3,13.22l-24.08,40.14a38.64,38.64,0,0,1-22.79,17.69c-48.08,13.22-132.22,2-259.93-125.68S186.87,407.69,200.07,359.65a38.64,38.64,0,0,1,17.69-22.79l40.13-24.09a9.85,9.85,0,0,1,13.23,3l64,96A9.88,9.88,0,0,1,333,425l-35.94,28a30,30,0,0,0-7.92,38.38l2.85,5.17c10.17,18.65,22.82,41.87,68.9,87.94s69.28,58.72,87.93,68.9M759.65,190.21H333.49a26,26,0,0,0-25.94,25.94V333.69l-19.48-29.22a30.14,30.14,0,0,0-40.69-9.16l-40.09,24.11a58.79,58.79,0,0,0-26.87,34.85c-14.63,53.26-3.77,145,130.9,279.7,107.1,107,187,135.81,242,135.81A142.23,142.23,0,0,0,591,764.85,59,59,0,0,0,625.91,738L650,697.88a30.15,30.15,0,0,0-9.15-40.64l-96-64a30.31,30.31,0,0,0-40.56,6.59l-27.95,35.93a9.73,9.73,0,0,1-12.45,2.64l-5.31-2.93c-17.51-9.54-39.29-21.42-83.3-65.42-4.75-4.76-9.07-9.22-13.11-13.48H759.65a25.92,25.92,0,0,0,25.94-25.82V216.15a26,26,0,0,0-25.94-25.94"/><path style="fill:#f04f2a" d="M738.86,239.26a10.17,10.17,0,0,0-14.23-2l-170,128.92a13.7,13.7,0,0,1-16.13,0L368.58,237.3a10.18,10.18,0,0,0-12.29,16.22L526.23,382.43a34.25,34.25,0,0,0,40.69,0l170-128.91a10.15,10.15,0,0,0,2-14.26"/><path style="fill:#f04f2a" d="M459.77,383.28,355.58,494.85a10.17,10.17,0,0,0,14.88,13.88L474.65,397.1a10.17,10.17,0,0,0-14.88-13.82"/><path style="fill:#f04f2a" d="M634,383.28a10.17,10.17,0,0,0-14.88,13.87L723.32,508.73a10.17,10.17,0,1,0,14.88-13.88Z"/></svg>