<?xml version="1.0" encoding="iso-8859-1"?>
<!-- Generator: Adobe Illustrator 25.2.2, SVG Export Plug-In . SVG Version: 6.00 Build 0)  -->
<svg version="1.1" id="Calque_1" xmlns="http://www.w3.org/2000/svg" xmlns:xlink="http://www.w3.org/1999/xlink" x="0px" y="0px"
	 viewBox="0 0 77.37 91.092" style="enable-background:new 0 0 77.37 91.092;" xml:space="preserve">
<g>
	<path style="fill:#E0643A;" d="M49.592,14.589c-0.719,0-1.348-0.529-1.453-1.262c-0.666-4.667-4.731-8.188-9.455-8.188
		c-3.037,0-5.922,1.467-7.718,3.924c-0.478,0.656-1.399,0.798-2.053,0.32c-0.655-0.479-0.798-1.398-0.319-2.053
		c2.346-3.213,6.118-5.13,10.09-5.13c6.178,0,11.493,4.606,12.364,10.713c0.115,0.802-0.444,1.547-1.247,1.661
		C49.731,14.584,49.66,14.589,49.592,14.589"/>
	<path style="fill:#E0643A;" d="M71.009,31.587H6.359c-0.53,0-1.018-0.285-1.279-0.746c-0.261-0.46-0.254-1.025,0.019-1.48
		l4.408-7.347c0.265-0.443,0.743-0.713,1.26-0.713h2.387c0.811,0,1.47,0.658,1.47,1.469c0,0.811-0.659,1.47-1.47,1.47h-1.556
		l-2.645,4.408h59.461l-2.645-4.408h-3.392c-0.811,0-1.47-0.659-1.47-1.47c0-0.811,0.659-1.469,1.47-1.469h4.224
		c0.516,0,0.995,0.27,1.26,0.713l4.408,7.347c0.273,0.454,0.279,1.02,0.018,1.48C72.026,31.302,71.539,31.587,71.009,31.587"/>
	<path style="fill:#E0643A;" d="M60.667,31.022c-0.111,0-0.223-0.012-0.337-0.039c-0.79-0.184-1.281-0.975-1.096-1.765l2.698-11.534
		l-17.168-4.016l-1.176,5.026c-0.185,0.791-0.976,1.282-1.766,1.096c-0.79-0.184-1.281-0.974-1.096-1.764l1.51-6.457
		c0.089-0.38,0.325-0.708,0.656-0.914c0.331-0.205,0.731-0.271,1.11-0.182l20.03,4.685c0.38,0.089,0.708,0.324,0.914,0.656
		c0.205,0.33,0.271,0.73,0.182,1.109l-3.033,12.965C61.938,30.565,61.334,31.022,60.667,31.022"/>
	<path style="fill:#E0643A;" d="M14.319,31.396c-0.735,0-1.369-0.55-1.458-1.297L10.63,11.213c-0.095-0.806,0.481-1.537,1.286-1.632
		l24.575-2.905c0.389-0.046,0.776,0.065,1.082,0.306c0.307,0.241,0.504,0.594,0.55,0.981l1.338,11.324
		c0.095,0.805-0.481,1.536-1.286,1.631c-0.81,0.091-1.536-0.481-1.632-1.287l-1.166-9.864L13.72,12.326l2.06,17.428
		c0.095,0.806-0.481,1.536-1.286,1.632C14.435,31.392,14.376,31.396,14.319,31.396"/>
	<path style="fill:#E0643A;" d="M49.651,31.373c-0.663,0-1.266-0.452-1.427-1.126l-2.573-10.698l-20.813,5.004l1.114,4.634
		c0.19,0.789-0.296,1.582-1.085,1.772c-0.789,0.191-1.582-0.296-1.772-1.085l-1.457-6.062c-0.19-0.789,0.296-1.583,1.085-1.772
		l23.67-5.692c0.38-0.091,0.779-0.028,1.111,0.174c0.332,0.204,0.57,0.532,0.661,0.91l2.916,12.128
		c0.19,0.789-0.296,1.582-1.085,1.772C49.88,31.36,49.765,31.373,49.651,31.373"/>
	<path style="fill:#E0643A;" d="M4.967,85.952h67.435l-2.789-54.365H7.755L4.967,85.952z M73.948,88.891H3.42
		c-0.402,0-0.787-0.165-1.065-0.457c-0.277-0.292-0.422-0.685-0.402-1.087l2.939-57.304c0.04-0.781,0.685-1.394,1.468-1.394h64.65
		c0.783,0,1.428,0.613,1.468,1.394l2.939,57.304c0.02,0.402-0.125,0.795-0.402,1.087C74.736,88.726,74.351,88.891,73.948,88.891"/>
	<path style="fill:#E0643A;" d="M49.704,37.465c-0.81,0-1.469,0.659-1.469,1.469c0,0.81,0.659,1.469,1.469,1.469
		c0.81,0,1.469-0.659,1.469-1.469C51.173,38.124,50.514,37.465,49.704,37.465 M49.704,43.342c-2.431,0-4.408-1.977-4.408-4.408
		s1.977-4.408,4.408-4.408c2.431,0,4.408,1.977,4.408,4.408S52.135,43.342,49.704,43.342"/>
	<path style="fill:#E0643A;" d="M27.664,37.465c-0.81,0-1.469,0.659-1.469,1.469c0,0.81,0.659,1.469,1.469,1.469
		c0.81,0,1.469-0.659,1.469-1.469C29.133,38.124,28.474,37.465,27.664,37.465 M27.664,43.342c-2.431,0-4.408-1.977-4.408-4.408
		s1.977-4.408,4.408-4.408s4.408,1.977,4.408,4.408S30.095,43.342,27.664,43.342"/>
	<path style="fill:#E0643A;" d="M38.684,60.974c-6.887,0-12.489-5.603-12.489-12.489v-8.082c0-0.811,0.658-1.469,1.469-1.469
		s1.469,0.658,1.469,1.469v8.082c0,5.266,4.285,9.55,9.551,9.55s9.551-4.284,9.551-9.55V40.97c-0.074-0.174-0.114-0.366-0.114-0.567
		c0-0.811,0.659-1.469,1.47-1.469h0.113c0.811,0,1.469,0.658,1.469,1.469v8.082C51.173,55.371,45.571,60.974,38.684,60.974"/>
</g>
<g>
</g>
<g>
</g>
<g>
</g>
<g>
</g>
<g>
</g>
<g>
</g>
</svg>
