<?xml version="1.0" encoding="iso-8859-1"?>
<!-- Generator: Adobe Illustrator 25.2.2, SVG Export Plug-In . SVG Version: 6.00 Build 0)  -->
<svg version="1.1" id="Capa_1" xmlns="http://www.w3.org/2000/svg" xmlns:xlink="http://www.w3.org/1999/xlink" x="0px" y="0px"
	 viewBox="-49 141 512 512" style="enable-background:new -49 141 512 512;" xml:space="preserve">
<path style="fill:#FFFFFF;" d="M417.089,280.805c-25.928,25.928-67.966,25.928-93.895,0s-25.928-67.967,0-93.895L277.284,141
	L-49,467.284l45.911,45.911c25.928-25.928,67.967-25.928,93.895,0c25.928,25.928,25.928,67.967,0,93.895l45.91,45.91L463,326.716
	L417.089,280.805z M206.519,323.946l-21.298-21.298l21.213-21.213l21.298,21.298L206.519,323.946z M249.115,366.543l-21.299-21.298
	l21.213-21.213l21.299,21.298L249.115,366.543z M291.711,409.14l-21.298-21.299l21.213-21.213l21.298,21.299L291.711,409.14z"/>
</svg>
